<svg width="16" height="16" viewBox="0 0 16 16" fill="none" xmlns="http://www.w3.org/2000/svg">
<path d="M8.00016 10.6667C8.7335 10.6667 9.36127 10.4056 9.8835 9.88335C10.4057 9.36113 10.6668 8.73335 10.6668 8.00002C10.6668 7.26669 10.4057 6.63891 9.8835 6.11669C9.36127 5.59447 8.7335 5.33335 8.00016 5.33335C7.26683 5.33335 6.63905 5.59447 6.11683 6.11669C5.59461 6.63891 5.3335 7.26669 5.3335 8.00002C5.3335 8.73335 5.59461 9.36113 6.11683 9.88335C6.63905 10.4056 7.26683 10.6667 8.00016 10.6667ZM2.66683 13.3334C2.30016 13.3334 1.98627 13.2028 1.72516 12.9417C1.46405 12.6806 1.3335 12.3667 1.3335 12V4.00002C1.3335 3.63335 1.46405 3.31946 1.72516 3.05835C1.98627 2.79724 2.30016 2.66669 2.66683 2.66669H13.3335C13.7002 2.66669 14.0141 2.79724 14.2752 3.05835C14.5363 3.31946 14.6668 3.63335 14.6668 4.00002V12C14.6668 12.3667 14.5363 12.6806 14.2752 12.9417C14.0141 13.2028 13.7002 13.3334 13.3335 13.3334H2.66683Z" fill="#818181"/>
</svg>
