<svg width="16" height="16" viewBox="0 0 16 16" fill="none" xmlns="http://www.w3.org/2000/svg">
<path d="M9.51683 11.5C9.63905 11.3889 9.70572 11.25 9.71683 11.0833C9.72794 10.9166 9.67238 10.7722 9.55016 10.65L7.70016 8.69998L7.71683 8.64998H7.8835C8.4835 8.64998 8.98072 8.46665 9.37516 8.09998C9.76961 7.73331 10.0113 7.30553 10.1002 6.81665H10.3835C10.4946 6.81665 10.5863 6.77776 10.6585 6.69998C10.7307 6.6222 10.7668 6.52776 10.7668 6.41665C10.7668 6.30553 10.7307 6.21387 10.6585 6.14165C10.5863 6.06942 10.4946 6.03331 10.3835 6.03331H10.0835C10.0502 5.86665 9.99183 5.70831 9.9085 5.55831C9.82516 5.40831 9.72238 5.26109 9.60016 5.11665H10.3835C10.4946 5.11665 10.5863 5.07776 10.6585 4.99998C10.7307 4.9222 10.7668 4.82776 10.7668 4.71665C10.7668 4.60554 10.7307 4.51387 10.6585 4.44165C10.5863 4.36942 10.4946 4.33331 10.3835 4.33331H5.71683C5.5835 4.33331 5.46961 4.38054 5.37516 4.47498C5.28072 4.56942 5.2335 4.68331 5.2335 4.81665C5.2335 4.94998 5.28072 5.06109 5.37516 5.14998C5.46961 5.23887 5.5835 5.28331 5.71683 5.28331H7.8335C8.12238 5.28331 8.3585 5.35554 8.54183 5.49998C8.72516 5.64442 8.85016 5.8222 8.91683 6.03331H5.61683C5.50572 6.03331 5.41405 6.0722 5.34183 6.14998C5.26961 6.22776 5.2335 6.3222 5.2335 6.43331C5.2335 6.54442 5.26961 6.63609 5.34183 6.70831C5.41405 6.78053 5.50572 6.81665 5.61683 6.81665H8.9335C8.86683 7.03887 8.73905 7.23054 8.55016 7.39165C8.36127 7.55276 8.10572 7.63331 7.7835 7.63331H6.65016C6.50572 7.63331 6.38072 7.66665 6.27516 7.73331C6.16961 7.79998 6.08905 7.89442 6.0335 8.01665C5.97794 8.13887 5.96127 8.26387 5.9835 8.39165C6.00572 8.51942 6.06683 8.63887 6.16683 8.74998L8.66683 11.4833C8.77794 11.6055 8.91683 11.6666 9.0835 11.6666C9.25016 11.6666 9.39461 11.6111 9.51683 11.5ZM8.00016 14.6666C7.07794 14.6666 6.21127 14.4916 5.40016 14.1416C4.58905 13.7916 3.8835 13.3166 3.2835 12.7166C2.6835 12.1166 2.2085 11.4111 1.8585 10.6C1.5085 9.78887 1.3335 8.9222 1.3335 7.99998C1.3335 7.07776 1.5085 6.21109 1.8585 5.39998C2.2085 4.58887 2.6835 3.88331 3.2835 3.28331C3.8835 2.68331 4.58905 2.20831 5.40016 1.85831C6.21127 1.50831 7.07794 1.33331 8.00016 1.33331C8.92238 1.33331 9.78905 1.50831 10.6002 1.85831C11.4113 2.20831 12.1168 2.68331 12.7168 3.28331C13.3168 3.88331 13.7918 4.58887 14.1418 5.39998C14.4918 6.21109 14.6668 7.07776 14.6668 7.99998C14.6668 8.9222 14.4918 9.78887 14.1418 10.6C13.7918 11.4111 13.3168 12.1166 12.7168 12.7166C12.1168 13.3166 11.4113 13.7916 10.6002 14.1416C9.78905 14.4916 8.92238 14.6666 8.00016 14.6666Z" fill="#818181"/>
</svg>
