<svg width="16" height="16" viewBox="0 0 16 16" fill="none" xmlns="http://www.w3.org/2000/svg">
<path d="M14.0002 5.33332C14.3557 5.33332 14.6668 5.46665 14.9335 5.73332C15.2002 5.99999 15.3335 6.3111 15.3335 6.66665V7.99999C15.3335 8.07776 15.3252 8.1611 15.3085 8.24999C15.2918 8.33888 15.2668 8.42221 15.2335 8.49999L13.2335 13.2C13.1335 13.4222 12.9668 13.6111 12.7335 13.7667C12.5002 13.9222 12.2557 14 12.0002 14H6.66683C6.30016 14 5.98627 13.8694 5.72516 13.6083C5.46405 13.3472 5.3335 13.0333 5.3335 12.6667V5.88332C5.3335 5.70554 5.36961 5.5361 5.44183 5.37499C5.51405 5.21388 5.61127 5.07221 5.7335 4.94999L9.35016 1.34999C9.51683 1.19443 9.71405 1.09999 9.94183 1.06665C10.1696 1.03332 10.3891 1.07221 10.6002 1.18332C10.8113 1.29443 10.9641 1.44999 11.0585 1.64999C11.1529 1.84999 11.1724 2.05554 11.1168 2.26665L10.3668 5.33332H14.0002ZM2.66683 14C2.30016 14 1.98627 13.8694 1.72516 13.6083C1.46405 13.3472 1.3335 13.0333 1.3335 12.6667V6.66665C1.3335 6.29999 1.46405 5.9861 1.72516 5.72499C1.98627 5.46388 2.30016 5.33332 2.66683 5.33332C3.0335 5.33332 3.34739 5.46388 3.6085 5.72499C3.86961 5.9861 4.00016 6.29999 4.00016 6.66665V12.6667C4.00016 13.0333 3.86961 13.3472 3.6085 13.6083C3.34739 13.8694 3.0335 14 2.66683 14Z" fill="#818181"/>
</svg>
